<svg xmlns="http://www.w3.org/2000/svg" viewBox="0 0 24 24" fill="#000000"><path d="M12 0C5.372 0 0 5.372 0 12s5.372 12 12 12 12-5.372 12-12S18.628 0 12 0zm4.752 16.08c-1.272 1.272-3.12 1.92-5.04 1.92-1.92 0-3.768-.648-5.04-1.92C5.4 14.808 4.752 12.96 4.752 11.04c0-1.92.648-3.768 1.92-5.04C7.944 4.728 9.792 4.08 11.712 4.08c1.92 0 3.768.648 5.04 1.92l-1.92 1.92c-.768-.768-1.92-1.2-3.12-1.2-1.2 0-2.352.432-3.12 1.2-.768.768-1.2 1.92-1.2 3.12 0 1.2.432 2.352 1.2 3.12.768.768 1.92 1.2 3.12 1.2 1.2 0 2.352-.432 3.12-1.2h-3.12v-2.64h7.08c0 1.92-.648 3.768-1.92 5.04l.12-.12-.24.24z"/></svg>